# xmcd CD database file
#
# Track frame offsets:
#	150
#	19735
#	38252
#	52180
#	68687
#	89775
#	115922
#	132112
#	151250
#	169902
#
# Disc length: 2443 seconds
#
# Revision: 0
# Processed by: cddbd v1.5.1PL0 Copyright (c) Steve Scherf et al.
# Submitted via: CDex 1.51
#
DISCID=7e09890a
DTITLE=snow mobiles - snow mobiles
DYEAR=1996
DGENRE=Pop
TTITLE0=さいくりんぐる
TTITLE1=ビビアン
TTITLE2=きみのこと
TTITLE3=神無月のころ
TTITLE4=冬の精霊
TTITLE5=転がる雷
TTITLE6=ゆうぐれ薄紫
TTITLE7=氷質幻想
TTITLE8=夏降る雪のうた
TTITLE9=風景と思考
EXTD=YEAR: 1996
EXTT0=
EXTT1=
EXTT2=
EXTT3=
EXTT4=
EXTT5=
EXTT6=
EXTT7=
EXTT8=
EXTT9=
PLAYORDER=
